<svg width="109" height="45" viewBox="0 0 109 45" fill="none" xmlns="http://www.w3.org/2000/svg">
<path d="M56.3504 13.837C55.7721 13.7085 55.3223 13.2587 55.1938 12.6805C55.1296 12.3592 55.1296 12.0379 55.1296 11.7166C55.1296 11.3954 55.1296 11.0741 55.1938 10.8171C55.3223 10.2388 55.7721 9.7248 56.3504 9.59629C56.4147 9.59629 56.4147 9.59629 56.4789 9.59629C56.9287 9.53203 57.3142 9.46777 57.6997 9.46777C58.0852 9.46777 58.4708 9.53203 58.9205 9.59629H58.9848C59.5631 9.7248 60.0771 10.1746 60.2056 10.8171C60.2699 11.1384 60.3341 11.4596 60.3341 11.7809C60.3341 12.1022 60.3341 12.4234 60.2699 12.7447C60.1414 13.323 59.6916 13.7728 59.0491 13.9013H58.9848C58.535 13.9655 58.1495 14.0298 57.764 14.0298C57.3785 14.0298 56.9287 13.9655 56.5432 13.9013C56.4146 13.837 56.3504 13.837 56.3504 13.837Z" fill="#FCFCFC"/>
<path d="M91.8184 33.2416C91.6899 33.6271 91.4971 34.0769 91.2401 34.4624C90.9188 34.9122 90.5976 35.2335 90.2763 35.4262C88.927 35.2335 87.9632 34.6552 87.3206 33.6914C87.1279 33.3701 86.9351 33.0489 86.8066 32.7276C86.0998 33.3701 85.3288 33.9484 84.4292 34.4624C83.2727 35.105 82.0518 35.4905 80.7025 35.4905C79.546 35.4905 78.5822 35.2335 77.8754 34.6552C77.1043 34.0769 76.5903 33.3701 76.2048 32.4063C75.8192 31.4425 75.6907 30.4145 75.6907 29.1936V20.7764C75.6907 20.7122 75.6907 20.5837 75.6907 20.5194H68.1731V30.2859C68.1731 30.8 68.3016 31.1855 68.5586 31.5068C68.8156 31.828 69.2011 31.9565 69.7794 31.9565H72.221C72.4781 32.5991 72.6066 33.3059 72.6066 34.0769C72.6066 34.2697 72.6066 34.3982 72.6066 34.5909C72.6066 34.7837 72.5423 34.9122 72.5423 35.0407C71.8998 35.105 71.193 35.1692 70.4219 35.2335C69.6509 35.2977 68.9441 35.2977 68.1731 35.2977C66.8237 35.2977 65.7314 34.9765 65.0246 34.2697C64.3179 33.5629 63.9323 32.5348 63.9323 31.1212V20.5194H60.0771V35.2335C59.7558 35.2977 59.4346 35.362 59.0491 35.362C58.6635 35.362 58.278 35.4262 57.8925 35.4262C57.507 35.4262 57.1214 35.4262 56.7359 35.362C56.3504 35.362 56.0291 35.2977 55.7079 35.2335V22.5755C55.7079 21.933 55.5794 21.4189 55.3223 21.0977C55.0653 20.7764 54.6798 20.5836 54.0373 20.5836H53.5875C53.5875 20.5836 53.5875 20.5837 53.5875 20.5194H51.9169V25.7882C51.9169 27.2018 51.7884 28.4868 51.5956 29.6434C51.4029 30.8642 51.0174 31.8923 50.4391 32.7276C49.8608 33.6271 49.0897 34.2697 48.0617 34.7837C47.0336 35.2977 45.6843 35.4905 44.0137 35.4905C43.0499 35.4905 42.0219 35.362 40.9938 35.105C39.9657 34.8479 39.0019 34.4624 38.1666 33.9484C38.2951 33.3701 38.4879 32.7276 38.7449 32.1493C39.0019 31.571 39.3875 31.057 39.8372 30.6072C40.3513 30.9285 40.9938 31.1855 41.6363 31.4425C42.3431 31.6995 42.9857 31.7638 43.6282 31.7638C45.106 31.7638 46.1341 31.314 46.6481 30.4145C47.1621 29.5149 47.4192 28.1656 47.4192 26.3022V9.66053C47.7404 9.59628 48.1259 9.53203 48.5757 9.53203C49.0255 9.53203 49.3468 9.46778 49.668 9.46778C49.9893 9.46778 50.3748 9.46778 50.7603 9.53203C51.1459 9.53203 51.5314 9.59628 51.9169 9.66053V16.0859H63.9323V12.1664C63.9323 11.2026 64.1251 10.4958 64.4464 10.0461C64.7676 9.59628 65.4102 9.40352 66.3097 9.40352H67.9803L68.2373 9.66053V16.0217H80.06V28.1013C80.06 29.2579 80.1885 30.0932 80.5098 30.6072C80.831 31.1212 81.3451 31.3783 82.1804 31.3783C82.7586 31.3783 83.4012 31.2497 84.0437 30.9927C84.6862 30.7357 85.3288 30.2859 85.9713 29.7719C86.0998 29.6434 86.2926 29.5149 86.4211 29.3864V16.0217H90.7903V29.7719C90.7903 30.4787 90.8546 31.1212 91.0473 31.6995C91.1759 32.4063 91.4329 32.9203 91.8184 33.2416Z" fill="#FCFCFC"/>
<path d="M108.781 29.9647C108.781 31.6995 108.075 33.1131 106.725 34.1411C105.376 35.1692 103.513 35.6832 101.264 35.6832C99.9143 35.6832 98.6935 35.4905 97.6012 35.105C96.4446 34.7194 95.4808 34.3339 94.6455 33.8199C94.6455 33.3059 94.8383 32.7918 95.0953 32.2135C95.3523 31.6353 95.6736 31.1212 95.9949 30.8C96.7659 31.2497 97.6012 31.6353 98.5007 31.9565C99.4003 32.2778 100.3 32.4706 101.199 32.4706C102.163 32.4706 102.87 32.2778 103.448 31.8923C103.962 31.5068 104.284 30.9927 104.284 30.4144C104.284 29.9004 104.091 29.5149 103.705 29.0651C103.32 28.6796 102.806 28.3583 102.099 28.0371L99.9786 27.266C99.079 26.9448 98.308 26.5592 97.6012 26.1095C96.8944 25.6597 96.3161 25.0814 95.9306 24.3746C95.4808 23.6678 95.2881 22.8325 95.2881 21.933C95.2881 20.7764 95.5451 19.7484 96.1876 18.9131C96.7659 18.0778 97.5369 17.4352 98.565 16.9212C99.5931 16.4714 100.75 16.2144 102.035 16.2144C103.063 16.2144 104.219 16.3429 105.376 16.6642C106.532 16.9212 107.561 17.2425 108.332 17.628C108.332 18.0135 108.267 18.399 108.203 18.7845C108.075 19.1701 107.946 19.5556 107.753 19.9411C107.561 20.3266 107.368 20.5836 107.111 20.7764C106.404 20.4551 105.633 20.1981 104.733 19.8769C103.834 19.6198 102.934 19.4913 102.035 19.4913C101.328 19.4913 100.75 19.6841 100.3 20.0054C99.8501 20.3909 99.6573 20.8407 99.6573 21.4189C99.6573 21.8687 99.8501 22.3185 100.171 22.5755C100.493 22.8325 101.007 23.1538 101.713 23.4108L104.027 24.2461C105.44 24.7601 106.597 25.4669 107.496 26.3665C108.332 27.266 108.781 28.4868 108.781 29.9647Z" fill="#FCFCFC"/>
<path d="M13.5575 45C13.1077 45 12.7222 44.8072 12.4009 44.486L6.42536 38.5104C6.10409 38.1891 5.91133 37.8036 5.91133 37.3538V13.58C5.91133 12.8732 6.36111 12.2307 7.00364 12.0379L22.2317 6.64062L19.0191 3.55643L3.34118 8.82523V24.7601C3.34118 25.6597 2.57014 26.4307 1.67059 26.4307C0.771042 26.4307 0 25.6597 0 24.7601V7.66868C0 6.96189 0.449775 6.31935 1.15656 6.06234L19.0191 0.0867415C19.5973 -0.106019 20.2399 0.0224918 20.6897 0.472267L26.6652 6.06234C27.115 6.44786 27.2435 7.02614 27.1793 7.60442C27.0508 8.1827 26.6652 8.63247 26.087 8.82523L9.38102 14.7366V36.647L14.0715 41.4018C23.5168 37.8036 29.8137 28.7439 29.8137 18.5275V15.8931L15.2924 20.7121V31.3782C15.2924 32.2778 14.5213 33.0488 13.6218 33.0488C12.7222 33.0488 11.9512 32.2778 11.9512 31.3782V19.4913C11.9512 18.7845 12.4009 18.142 13.1077 17.885L30.9702 11.9094C31.4843 11.7166 32.0625 11.8452 32.4481 12.1664C32.8978 12.4877 33.1549 13.0017 33.1549 13.5157V18.4633C33.1549 30.4144 25.5087 41.0163 14.2 44.8072C13.8788 44.9358 13.7503 45 13.5575 45Z" fill="#FCFCFC"/>
<path d="M3.34118 31.3783C3.34118 31.828 3.14842 32.2778 2.82716 32.5348C2.50589 32.8561 2.12037 33.0489 1.67059 33.0489C0.771042 33.0489 0 32.2778 0 31.3783C0 30.9285 0.19276 30.4787 0.514028 30.2217C0.835296 29.9004 1.22082 29.7077 1.67059 29.7077C2.12037 29.7077 2.57014 29.9004 2.82716 30.2217C3.14842 30.5429 3.34118 30.9285 3.34118 31.3783Z" fill="#FCFCFC"/>
</svg>
