<svg width="110" height="46" viewBox="0 0 110 46" fill="none" xmlns="http://www.w3.org/2000/svg">
<path d="M56.7504 14.302C56.1721 14.1735 55.7224 13.7237 55.5939 13.1454C55.5296 12.8242 55.5296 12.5029 55.5296 12.1816C55.5296 11.8604 55.5296 11.5391 55.5939 11.2821C55.7224 10.7038 56.1721 10.1898 56.7504 10.0613C56.8147 10.0613 56.8147 10.0613 56.8789 10.0613C57.3287 9.99703 57.7142 9.93277 58.0997 9.93277C58.4853 9.93277 58.8708 9.99703 59.3206 10.0613H59.3848C59.9631 10.1898 60.4771 10.6396 60.6056 11.2821C60.6699 11.6034 60.7341 11.9246 60.7341 12.2459C60.7341 12.5672 60.7341 12.8884 60.6699 13.2097C60.5414 13.788 60.0916 14.2378 59.4491 14.3663H59.3848C58.935 14.4305 58.5495 14.4948 58.164 14.4948C57.7785 14.4948 57.3287 14.4305 56.9432 14.3663C56.8147 14.302 56.7504 14.302 56.7504 14.302Z" fill="black"/>
<path d="M92.2184 33.7066C92.0899 34.0921 91.8971 34.5419 91.6401 34.9274C91.3189 35.3772 90.9976 35.6985 90.6763 35.8912C89.327 35.6985 88.3632 35.1202 87.7207 34.1564C87.5279 33.8351 87.3351 33.5138 87.2066 33.1926C86.4998 33.8351 85.7288 34.4134 84.8293 34.9274C83.6727 35.5699 82.4519 35.9555 81.1025 35.9555C79.946 35.9555 78.9822 35.6985 78.2754 35.1202C77.5043 34.5419 76.9903 33.8351 76.6048 32.8713C76.2193 31.9075 76.0908 30.8794 76.0908 29.6586V21.2414C76.0908 21.1771 76.0908 21.0486 76.0908 20.9844H68.5731V30.7509C68.5731 31.265 68.7016 31.6505 68.9586 31.9717C69.2156 32.293 69.6011 32.4215 70.1794 32.4215H72.6211C72.8781 33.0641 73.0066 33.7708 73.0066 34.5419C73.0066 34.7346 73.0066 34.8632 73.0066 35.0559C73.0066 35.2487 72.9423 35.3772 72.9423 35.5057C72.2998 35.5699 71.593 35.6342 70.822 35.6985C70.0509 35.7627 69.3441 35.7627 68.5731 35.7627C67.2238 35.7627 66.1315 35.4414 65.4247 34.7347C64.7179 34.0279 64.3324 32.9998 64.3324 31.5862V20.9844H60.4771V35.6985C60.1559 35.7627 59.8346 35.827 59.4491 35.827C59.0636 35.827 58.678 35.8912 58.2925 35.8912C57.907 35.8912 57.5215 35.8912 57.1359 35.827C56.7504 35.827 56.4292 35.7627 56.1079 35.6985V23.0405C56.1079 22.398 55.9794 21.8839 55.7224 21.5627C55.4654 21.2414 55.0798 21.0486 54.4373 21.0486H53.9875C53.9875 21.0486 53.9875 21.0486 53.9875 20.9844H52.3169V26.2532C52.3169 27.6668 52.1884 28.9518 51.9957 30.1084C51.8029 31.3292 51.4174 32.3573 50.8391 33.1926C50.2608 34.0921 49.4898 34.7346 48.4617 35.2487C47.4337 35.7627 46.0843 35.9555 44.4137 35.9555C43.4499 35.9555 42.4219 35.827 41.3938 35.5699C40.3658 35.3129 39.402 34.9274 38.5667 34.4134C38.6952 33.8351 38.8879 33.1926 39.1449 32.6143C39.402 32.036 39.7875 31.522 40.2373 31.0722C40.7513 31.3935 41.3938 31.6505 42.0364 31.9075C42.7431 32.1645 43.3857 32.2288 44.0282 32.2288C45.5061 32.2288 46.5341 31.779 47.0481 30.8794C47.5622 29.9799 47.8192 28.6306 47.8192 26.7672V10.1255C48.1404 10.0613 48.526 9.99702 48.9757 9.99702C49.4255 9.99702 49.7468 9.93276 50.0681 9.93276C50.3893 9.93276 50.7748 9.93277 51.1604 9.99702C51.5459 9.99702 51.9314 10.0613 52.3169 10.1255V16.5509H64.3324V12.6314C64.3324 11.6676 64.5251 10.9608 64.8464 10.511C65.1676 10.0613 65.8102 9.86851 66.7097 9.86851H68.3803L68.6373 10.1255V16.4866H80.46V28.5663C80.46 29.7229 80.5885 30.5582 80.9098 31.0722C81.231 31.5862 81.7451 31.8432 82.5804 31.8432C83.1587 31.8432 83.8012 31.7147 84.4437 31.4577C85.0863 31.2007 85.7288 30.7509 86.3713 30.2369C86.4998 30.1084 86.6926 29.9799 86.8211 29.8514V16.4866H91.1904V30.2369C91.1904 30.9437 91.2546 31.5862 91.4474 32.1645C91.5759 32.8713 91.8329 33.3853 92.2184 33.7066Z" fill="black"/>
<path d="M109.181 30.4297C109.181 32.1645 108.475 33.5781 107.125 34.6061C105.776 35.6342 103.913 36.1482 101.664 36.1482C100.314 36.1482 99.0935 35.9555 98.0012 35.5699C96.8447 35.1844 95.8809 34.7989 95.0456 34.2849C95.0456 33.7708 95.2383 33.2568 95.4953 32.6785C95.7523 32.1003 96.0736 31.5862 96.3949 31.265C97.1659 31.7147 98.0012 32.1003 98.9008 32.4215C99.8003 32.7428 100.7 32.9355 101.599 32.9355C102.563 32.9355 103.27 32.7428 103.848 32.3573C104.362 31.9717 104.684 31.4577 104.684 30.8794C104.684 30.3654 104.491 29.9799 104.105 29.5301C103.72 29.1446 103.206 28.8233 102.499 28.5021L100.379 27.731C99.4791 27.4098 98.708 27.0242 98.0012 26.5744C97.2944 26.1247 96.7161 25.5464 96.3306 24.8396C95.8809 24.1328 95.6881 23.2975 95.6881 22.398C95.6881 21.2414 95.9451 20.2134 96.5876 19.3781C97.1659 18.5428 97.937 17.9002 98.965 17.3862C99.9931 16.9364 101.15 16.6794 102.435 16.6794C103.463 16.6794 104.619 16.8079 105.776 17.1292C106.932 17.3862 107.961 17.7075 108.732 18.093C108.732 18.4785 108.667 18.864 108.603 19.2495C108.475 19.6351 108.346 20.0206 108.153 20.4061C107.961 20.7916 107.768 21.0486 107.511 21.2414C106.804 20.9201 106.033 20.6631 105.133 20.3419C104.234 20.0848 103.334 19.9563 102.435 19.9563C101.728 19.9563 101.15 20.1491 100.7 20.4704C100.25 20.8559 100.057 21.3057 100.057 21.8839C100.057 22.3337 100.25 22.7835 100.571 23.0405C100.893 23.2975 101.407 23.6188 102.113 23.8758L104.427 24.7111C105.84 25.2251 106.997 25.9319 107.896 26.8315C108.732 27.731 109.181 28.9518 109.181 30.4297Z" fill="black"/>
<path d="M13.9575 45.465C13.5078 45.465 13.1222 45.2722 12.801 44.951L6.82538 38.9754C6.50412 38.6541 6.31135 38.2686 6.31135 37.8188V14.045C6.31135 13.3382 6.76113 12.6957 7.40367 12.5029L22.6318 7.10561L19.4191 4.02143L3.74121 9.29023V25.2251C3.74121 26.1247 2.97017 26.8957 2.07062 26.8957C1.17107 26.8957 0.400024 26.1247 0.400024 25.2251V8.13367C0.400024 7.42688 0.849799 6.78435 1.55659 6.52733L19.4191 0.551738C19.9974 0.358977 20.6399 0.487488 21.0897 0.937263L27.0653 6.52733C27.515 6.91286 27.6435 7.49113 27.5793 8.06942C27.4508 8.6477 27.0653 9.09747 26.487 9.29023L9.78105 15.2016V37.112L14.4716 41.8668C23.9168 38.2686 30.2137 29.2088 30.2137 18.9925V16.3581L15.6924 21.1771V31.8432C15.6924 32.7428 14.9213 33.5138 14.0218 33.5138C13.1222 33.5138 12.3512 32.7428 12.3512 31.8432V19.9563C12.3512 19.2495 12.801 18.607 13.5078 18.35L31.3703 12.3744C31.8843 12.1816 32.4626 12.3102 32.8481 12.6314C33.2979 12.9527 33.5549 13.4667 33.5549 13.9807V18.9283C33.5549 30.8794 25.9087 41.4813 14.6001 45.2722C14.2788 45.4008 14.1503 45.465 13.9575 45.465Z" fill="black"/>
<path d="M3.74121 31.8433C3.74121 32.293 3.54845 32.7428 3.22718 32.9998C2.90591 33.3211 2.52039 33.5139 2.07062 33.5139C1.17107 33.5139 0.400024 32.7428 0.400024 31.8433C0.400024 31.3935 0.592785 30.9437 0.914053 30.6867C1.23532 30.3654 1.62084 30.1727 2.07062 30.1727C2.52039 30.1727 2.97017 30.3654 3.22718 30.6867C3.54845 31.0079 3.74121 31.3935 3.74121 31.8433Z" fill="black"/>
</svg>
